<svg width="24" height="24" viewBox="0 0 24 24" fill="none" xmlns="http://www.w3.org/2000/svg">
<path d="M10.8 11.3H11.3V10.8V6.5H12.7V10.8V11.3H13.2H17.5V12.7H13.2H12.7V13.2V17.5H11.3V13.2V12.7H10.8H6.5V11.3H10.8ZM0.5 12C0.5 5.66294 5.66294 0.5 12 0.5C18.3371 0.5 23.5 5.66294 23.5 12C23.5 18.3371 18.3371 23.5 12 23.5C5.66294 23.5 0.5 18.3371 0.5 12ZM22.1 12C22.1 6.40771 17.5923 1.9 12 1.9C6.40771 1.9 1.9 6.40771 1.9 12C1.9 17.5923 6.40771 22.1 12 22.1C17.5923 22.1 22.1 17.5923 22.1 12Z" fill="#333" stroke="#333"/>
</svg>
